<svg xmlns="http://www.w3.org/2000/svg" width="1231" height="475" viewBox="0 0 1231 475"><rect width="1231" height="475" fill="#ffffff"/><g font-family="Segoe UI,Arial"><rect x="32" y="10" width="333" height="408" rx="4" fill="#ffffff" stroke="#edf1f5"/><text x="57" y="61" font-size="27" font-weight="700" fill="#34495e">Contacts with</text><text x="57" y="92" font-size="27" font-weight="700" fill="#34495e">placeholder values</text><rect x="57" y="136" width="94" height="30" rx="4" fill="#eef4f8"/><text x="70" y="157" font-size="15" font-weight="700" fill="#40536a">ALL TIME</text><text x="98" y="226" font-size="20" font-weight="700" fill="#34495e">(COUNT) CONTACTS</text><text x="167" y="286" font-size="43" fill="#34495e">47</text><rect x="425" y="10" width="333" height="408" rx="4" fill="#ffffff" stroke="#edf1f5"/><text x="450" y="61" font-size="27" font-weight="700" fill="#34495e">Contacts with job title</text><text x="450" y="92" font-size="27" font-weight="700" fill="#34495e">populated</text><rect x="450" y="136" width="94" height="30" rx="4" fill="#eef4f8"/><text x="463" y="157" font-size="15" font-weight="700" fill="#40536a">ALL TIME</text><text x="491" y="226" font-size="20" font-weight="700" fill="#34495e">(COUNT) CONTACTS</text><text x="560" y="286" font-size="43" fill="#34495e">38</text><rect x="817" y="10" width="333" height="408" rx="4" fill="#ffffff" stroke="#edf1f5"/><text x="842" y="61" font-size="27" font-weight="700" fill="#34495e">Contacts using birthday</text><rect x="842" y="136" width="94" height="30" rx="4" fill="#eef4f8"/><text x="855" y="157" font-size="15" font-weight="700" fill="#40536a">ALL TIME</text><text x="883" y="226" font-size="20" font-weight="700" fill="#34495e">(COUNT) CONTACTS</text><text x="963" y="286" font-size="43" fill="#34495e">9</text></g></svg>
